<?xml version="1.0" encoding="UTF-8"?>
<svg width="4e3" height="3500" version="1.1" viewBox="0 0 1058.3 926.04" xml:space="preserve" xmlns="http://www.w3.org/2000/svg" xmlns:xlink="http://www.w3.org/1999/xlink"><defs><linearGradient id="linearGradient43"><stop stop-color="#2e2e2e" offset="0"/><stop stop-color="#262626" offset=".5"/><stop stop-color="#2e2e2e" offset="1"/></linearGradient><radialGradient id="radialGradient26" cx="281.48" cy="75.151" r="12.798" gradientTransform="translate(-1.6672 -4.0434)" gradientUnits="userSpaceOnUse" xlink:href="#linearGradient33"/><linearGradient id="linearGradient33"><stop stop-color="#262626" offset="0"/><stop stop-color="#1a1a1a" offset="1"/></linearGradient><radialGradient id="radialGradient7" cx="281.48" cy="75.151" r="12.798" gradientTransform="translate(48.32 -4.0434)" gradientUnits="userSpaceOnUse" xlink:href="#linearGradient33"/><filter id="filter21" x="-.058216" y="-.068011" width="1.1164" height="1.136" color-interpolation-filters="sRGB"><feGaussianBlur stdDeviation="7.4938605"/></filter><linearGradient id="linearGradient20" x1="329.84" x2="329.84" y1="183.96" y2="344.19" gradientUnits="userSpaceOnUse" xlink:href="#linearGradient19"/><linearGradient id="linearGradient19"><stop offset="0"/><stop stop-color="#535353" offset="1"/></linearGradient><linearGradient id="linearGradient39" x1="146.63" x2="411.55" y1="370.75" y2="370.75" gradientTransform="translate(50.748)" gradientUnits="userSpaceOnUse" spreadMethod="reflect" xlink:href="#linearGradient37"/><linearGradient id="linearGradient37"><stop stop-color="#292929" offset="0"/><stop stop-color="#1f1f1f" offset=".5"/><stop stop-color="#292929" offset="1"/></linearGradient><linearGradient id="linearGradient48" x1="146.63" x2="411.55" y1="288.41" y2="288.41" gradientTransform="translate(50.748)" gradientUnits="userSpaceOnUse" xlink:href="#linearGradient46"/><linearGradient id="linearGradient46"><stop stop-color="#2993ff" offset="0"/><stop stop-color="#1f89f5" offset=".5"/><stop stop-color="#2993ff" offset="1"/></linearGradient><linearGradient id="linearGradient2" x1="77.205" x2="480.97" y1="217.4" y2="217.4" gradientTransform="translate(50.748)" gradientUnits="userSpaceOnUse" xlink:href="#linearGradient43"/><linearGradient id="linearGradient45" x1="77.205" x2="480.97" y1="217.4" y2="217.4" gradientTransform="matrix(-.76684 0 0 -.76684 485.85 327.5)" gradientUnits="userSpaceOnUse" xlink:href="#linearGradient43"/><radialGradient id="radialGradient54" cx="281.48" cy="75.151" r="12.798" gradientTransform="matrix(.7752 0 0 1 155.95 -4.0434)" gradientUnits="userSpaceOnUse" xlink:href="#linearGradient33"/><radialGradient id="radialGradient24" cx="270.93" cy="270.93" r="270.93" gradientUnits="userSpaceOnUse"><stop stop-color="#1f298f" offset="0"/><stop stop-color="#13192c" offset="1"/></radialGradient><filter id="filter60" x="-.066157" y="-.051088" width="1.132" height="1.1022" color-interpolation-filters="sRGB"><feGaussianBlur stdDeviation="8.7852265"/></filter><filter id="filter64" x="-.037435" y="-.15687" width="1.0749" height="1.3138" color-interpolation-filters="sRGB"><feGaussianBlur stdDeviation="6.0642954"/></filter><filter id="filter65" x="-.055343" y="-.10986" width="1.1107" height="1.2195" color-interpolation-filters="sRGB"><feGaussianBlur stdDeviation="2.4398633"/></filter></defs><g transform="scale(1.9531 1.709)"><rect width="541.87" height="541.87" ry="0" fill="url(#radialGradient24)"/></g><g transform="translate(544.09 7.7481)"><path transform="matrix(-.11364 -.99352 -.99352 .11364 831.93 810.82)" d="m486.79 512.75c0.75299 5.5051 1.3843 11.552 0.8966 13.719-4.6583 20.696-49.42 38.066-89.582 42.66l-125.52 14.357c-42.512 4.5432-59.59-0.61016-66.911-10.729-11.626-3.0038-20.096-4.6344-37.17-3.3993-17.262 0.72435-41.989 3.2193-71.684 7.6545-17.081 1.6579-41.973 4.3936-66.391 6.3307-0.0431-0.044-0.08581-0.0884-0.1286-0.13301-33.431 2.8393-37.619 5.3494-40.196-17.548l-4.272-37.955c-3.3106-29.415 20.627 11.509 34.646 11.926 0.0043-0.0179 0.0089-0.0353 0.01318-0.053 34.965-6.0594 71.698-11.694 109.67-15.931 21.769-3.7508 47.194-5.1622 65.029-14.584-9e-3 -0.0536-0.0188-0.10674-0.0281-0.15958 5.6226-6.8933 22.428-17.366 46.046-23.146 0 0 12.536-5.2258 57.289-12.558 24.673-4.0421 76.061-6.6389 76.061-6.6389 60.935-7.734 109.17 24.959 109.17 24.959l1.4285 10.761s0.87449 4.9631 1.6275 10.468z" fill="none" filter="url(#filter64)" stroke="#fff" stroke-linecap="round" stroke-linejoin="round" stroke-width="8.4667" style="mix-blend-mode:normal"/><g><g transform="matrix(-.11364 -.99352 -.99352 .11364 831.93 810.82)"><path d="m168.84 567.72c-17.262 0.72435-41.989 3.2192-71.684 7.6545-17.081 1.6579-29.774 4.1219-54.182 6.1886-33.61 2.846-49.828 7.1265-52.452-15.81l-4.2854-37.467c-3.3931-29.666 20.916 13.091 34.464 11.586 35.318-5.4044 72.825-9.846 109.9-14.676 23.965-4.5852 51.591-5.8014 69.849-19.14 10.417-7.6102 23.53-13.087 29.775-1.3553 9.7769 17.918 45.888 83.12-2.8142 73.511-26.978-6.0567-32.809-12.355-58.569-10.491z" fill="#1f89f5" stroke-linecap="round" stroke-linejoin="round" stroke-width="2"/></g></g><g transform="translate(.44685 40.123)" display="none" fill="#a9f5ff"><path d="m110.02 269.6c-3.047-7.3511-10.763-28.278-26.613 5.8353-8.3671 29.531-8.7621 58.858 8.0667 104.9-24.746-4.4901-38.508-36.895-45.206-26.249-10.21 16.455 2.6705 83.452 38.96 116.2-25.591 3.1012-40.345-19.375-43.573-7.0203-6.9693 27.157 60.313 100.48 137.28 92.905 8.2244 2.0756 34.495-15.877 42.705-14.374 41.535-6.0045 39.265 0.40194 39.267-41.559-7e-3 -7.3086-0.96311-14.585-2.8443-21.648-5.9742-6.8137-12.863-13.743-20.519-20.639-6.71-23.008-20.091-22.865-34.177-47.219-62.16-33.989-82.833-115.78-93.344-141.14zm148.04 208.99c-258.86-307.28-258.86-307.28 0 0z" opacity=".59898"/><path d="m430.95 269.6c3.047-7.3511 10.763-28.278 26.613 5.8353 8.3671 29.531 8.7621 58.858-8.0667 104.9 24.746-4.4901 38.508-36.895 45.206-26.249 10.21 16.455-2.6705 83.452-38.96 116.2 25.591 3.1012 40.345-19.375 43.573-7.0203 6.9693 27.157-60.313 100.48-137.28 92.905-8.2244 2.0756-34.495-15.877-42.705-14.374-41.535-6.0045-39.265 0.40194-39.267-41.559 7e-3 -7.3086 0.96311-14.585 2.8443-21.648 5.9742-6.8137 12.863-13.743 20.519-20.639 6.71-23.008 20.091-22.865 34.177-47.219 62.16-33.989 82.833-115.78 93.344-141.14zm-148.04 208.99c258.86-307.28 258.86-307.28 0 0z" opacity=".59898"/></g><g transform="translate(-2.0801 9.9082)" stroke-linecap="round" stroke-linejoin="round"><path d="m273.01 395.75c26.501 0 53.532 24.363 52.773 85.782 0 0 4.4446 51.522 2.658 76.46-3.1659 44.19-6.8349 61.652-6.8349 61.652-5.3869 48.591-22.095 48.513-48.596 48.513-26.502 0-47.837-23.927-47.837-72.815v-126.34c0-48.888 21.335-73.252 47.837-73.252z" fill="#1f89f5" stroke-width="1.4142"/><path d="m272.99 361.31c-17.657 0.20048-30.37 47.681-39.937 64.433-10.27 17.983 38.985-6.1518 38.985-21.852 0 15.7 57.833 34.818 37.993 15.162-19.48-19.299-25.08-86.313-25.805-43.01-0.18114-10.826-7.5014-14.775-11.235-14.733z" fill="#1f89f5" stroke-width="2.4028"/><path d="m285.8 417.83c11.386-13.827 40.208-5.7715 39.986 63.702 0 0 4.5813 52.939 2.9265 76.192-2.3717 33.327-3.6075 44.123-9.3899 76.738-5.476 30.886-46.31 16.213-46.31-32.675v-119.4c0-25.797 5.9094-56.209 12.787-64.561z" fill="#f7f7f7" stroke-width="1.4142"/><path transform="rotate(-71.405 246.84 378.05)" d="m196.26 404.89c-28.875 9.0435-57.994 16.83-86.514 26.776-34.314 11.029-57.129 16.913-84.28 28.958-13.331 5.9142-32.397 16.568-29.04 29.286 3.7383 14.163 17.141 15.027 31.779 10.684 0 0 44.274-13.4 82.449-27.376 9.6606-3.0805 22.73-7.3688 22.73-7.3688 8.7419-3.0737 34.522-12.046 67.063-24.412 27.795-7.9602 35.658-14.27 30.249-30.347-3.8955-11.578-8.9667-11.645-18.117-10.832z" fill="#1f89f5" stroke-width="2"/></g><g transform="translate(.12913 -8.6875)" stroke-linecap="round" stroke-linejoin="round"><g><path transform="matrix(-.11364 -.99352 -.99352 .11364 831.8 819.51)" d="m30.49 583.2c-33.61 2.846-37.81 5.4108-40.392-17.531l-4.2717-37.955c-3.3395-29.672 21.047 12.229 35.011 11.928 5.192 8.8186-1.5379 25.976 9.6534 43.558z" fill="#202020" stroke-width="2"/><path transform="matrix(-.11364 -.99352 -.99352 .11364 831.8 819.51)" d="m168.5 569.36c-17.262 0.72435-41.989 3.2192-71.684 7.6545-17.081 1.6579-41.973 4.3938-66.39 6.331-10.052-10.271-11.818-36.057-9.9383-43.763 34.965-6.0594 71.698-11.694 109.67-15.931 24.045-4.1431 52.552-5.432 70.362-17.815 10.592-7.3644 23.46-12.864 29.704-1.1327 9.7769 17.918 45.888 83.12-2.8142 73.511-26.978-6.0567-33.154-10.717-58.914-8.854z" fill="#1a1a1a" stroke-width="2"/><path transform="translate(-2.2092 18.596)" d="m290.7 376.17s37.963 44.212 37.204 105.63c0 0 3.2597 51.35 2.0475 76.322-2.1986 45.296-5.9661 58.345-5.9661 58.345-3.0586 24.122-11.554 42.008-17.764 48.378-6.6435-0.40584-18.702 0.0632-32.828 0.0632-27.169 0-49.499 8.2934-50.068-68.504v-126.34c0-40.424 12.171-86.869 32.204-93.849 4.1949-1.4616 24.318-0.24068 24.318-0.24068z" fill="#202020" stroke-width="1.4142"/></g><path transform="rotate(-71.405 258.68 388.89)" d="m196.26 404.89c-28.875 9.0435-57.994 16.83-86.514 26.776-34.314 11.029-41.844 12.062-69.529 22.824-10.52 4.0891 1.5058 41.599 16.145 37.256 0 0 16.117-4.5511 54.292-18.527 9.6606-3.0805 22.73-7.3688 22.73-7.3688 8.7419-3.0737 34.522-12.046 67.063-24.412 27.795-7.9602 16.7-6.2195 11.291-22.297-3.8955-11.578 5.3073-11.599 0.84133-18.883z" fill="none" filter="url(#filter65)" stroke="#000" stroke-opacity=".23318" stroke-width="8.4667"/><path transform="rotate(-71.405 258.68 388.89)" d="m25.467 460.63c-11.762 4.6106-32.397 16.568-29.04 29.286 3.7383 14.163 17.141 15.027 31.779 10.684 0 0 14.071-4.3622 24.429-7.6509 12.701-4.1152 10.856-13.932 6.9528-24.284-5.0044-12.044-5.3564-19.311-34.122-8.0354z" fill="#f7f7f7" stroke-width="2"/><path transform="rotate(-71.405 258.68 388.89)" d="m196.26 404.89c-28.875 9.0435-57.994 16.83-86.514 26.776-34.314 11.029-41.844 12.062-69.529 22.824-10.52 4.0891 1.5058 41.599 16.145 37.256 0 0 16.117-4.5511 54.292-18.527 9.6606-3.0805 22.73-7.3688 22.73-7.3688 8.7419-3.0737 34.522-12.046 67.063-24.412 27.795-7.9602 35.658-14.27 30.249-30.347-3.8955-11.578-8.9667-11.645-18.117-10.832z" fill="#202020" stroke-width="2"/></g><g transform="translate(-.89764 93.839)"><g transform="matrix(-.76684 0 0 -.76684 810.62 571.35)"><path d="m702.62 464.38c-111.5 0-201.88 30.703-201.88 68.576v4.8641c3e-5 20.636 26.96 39.096 69.422 51.668v151.94a132.46 68.576 0 0 0 132.46 68.576 132.46 68.576 0 0 0 132.46-68.576v-151.94c42.462-12.572 69.422-31.032 69.422-51.668v-4.8641c-5e-5 -37.874-90.386-68.576-201.88-68.576z" fill="none" filter="url(#filter21)" stroke="#fff" stroke-linecap="round" stroke-width="11.041"/><g transform="translate(372.78 317.99)"><g stroke-linecap="round"><rect x="197.38" y="183.96" width="264.92" height="66.895" ry="0" fill="url(#linearGradient20)" stroke-width=".13246"/><path d="m197.38 249.49v173.95a132.46 68.576 0 0 0 132.46 68.576 132.46 68.576 0 0 0 132.46-68.576v-173.95z" fill="url(#linearGradient39)" stroke-width=".23384"/><path d="m197.38 232.64v42.975c3e-5 37.874 59.305 68.576 132.46 68.576 73.156-3e-5 132.46-30.703 132.46-68.576v-42.975a132.46 68.576 0 0 1-132.46 68.576 132.46 68.576 0 0 1-132.46-68.576z" fill="url(#linearGradient48)" stroke-width=".21361"/></g><path d="m329.84 146.4c-111.5 0-201.88 30.703-201.88 68.576v4.8638c5e-5 37.874 90.386 68.576 201.88 68.576 111.5 0 201.88-30.703 201.88-68.576v-4.8638c-5e-5 -37.874-90.386-68.576-201.88-68.576zm0 38.926c59.235 7e-3 108.64 13.679 113.81 31.498-3.2461 18.28-53.19 32.615-113.81 32.666-59.863-0.0553-109.44-14.05-113.66-32.082 4.2174-18.032 53.797-32.027 113.66-32.082z" fill="url(#linearGradient2)"/></g></g><g transform="matrix(1.2476 0 0 1.2476 -116.42 120.73)"><path d="m312.52-13.469c-3.6843 0.28978-8.9834 3.8644-13.426 9.0571-6.0669 7.0904-8.6082 14.872-5.6761 17.381 2.1734 1.8524 6.8589 0.32466 11.833-3.8582-1.4244 3.6999-1.3595 6.5943 0.17769 7.9272 2.9323 2.5087 10.227-1.2054 16.294-8.2958 6.0669-7.0904 8.6082-14.872 5.6761-17.381-2.1688-1.8494-6.841-0.33179-11.807 3.835 1.4151-3.695 1.3405-6.5808-0.20419-7.904-0.69718-0.5966-1.6717-0.85529-2.8679-0.76128z" display="none" fill="#1f89f5"/><path d="m391.47 91.514c0 57.558-29.855 45.774-78.382 45.774s-81.134 8.3151-81.134-49.242c0-27.165-0.43177-47.845 12.505-60.903 14.474-14.609 43.707-19.965 69.331-19.965 18.258 0 43.942-1.9795 56.653 5.2113 21.073 11.922 21.028 43.222 21.028 79.125z" fill="#1f89f5" stroke-linecap="round" stroke-linejoin="round" stroke-width="1.7903"/><path d="m323.31 22.19c-5.1436 4.618-7.6346 13.05-8.4646 16.664-3.6619 15.945-2.6624 37.809-2.6015 55.505 0.0411 11.942-0.11127 15.012 1.2724 22.485 1.5489 8.3661 21.055 8.2706 23.74 8.2706 46.728 0 53.907 0 54.207-33.6 0.32044-35.901-5.0084-58.879-16.086-65.641-11.077-6.7616-43.407-11.98-52.067-3.6834z" fill="#f7f7f7" stroke-linecap="round" stroke-linejoin="round" stroke-width="1.7903"/><g transform="translate(66.801 -4.4952e-5)" stroke-linecap="round" stroke-linejoin="round" stroke-width="1.603"><path d="m312.01 100.43c0 5.6862-0.11304 10.946-0.71158 15.591 10.392-0.25868 24.106-5.5504 24.106-11.862 0-6.2592-23.395-8.5099-23.395-3.7294z" fill="#e5a810"/><path d="m311.55 86.743c0.37714 4.2808 0.45271 8.9035 0.45271 13.684 0 5.6862 23.395 10.041 23.395 3.7294 0-6.2592-13.488-16.731-23.847-17.413z" fill="#eeb11a"/></g><g transform="translate(-13.148)" stroke-linecap="round" stroke-linejoin="round"><ellipse cx="373.85" cy="71.629" rx="18.12" ry="23.375" fill="#fff" stroke="#737373" stroke-width="1.8671"/><ellipse cx="378.5" cy="75.752" rx="9.9206" ry="12.798" fill="url(#radialGradient54)" stroke-width="1.4114"/></g></g><path d="m426.64 160.79v-1.865c-4e-5 -29.043-69.312-52.587-154.81-52.587-85.5 0-154.81 23.544-154.81 52.587v1.865h58.608c3.2193-13.802 50.215-24.563 96.204-24.602 45.905 0.0424 90.892 10.774 94.127 24.602z" fill="url(#linearGradient45)"/></g></g><g transform="translate(47.401 7.3798)"><path d="m302.13 389.63c-2.2794-0.0811-10.386 5.6606-29.878 19.476-6.3174-6.5709-27.742-18.954-33.44-18.426-0.0124-0.01-0.0248-0.0194-0.0372-0.0289-4.6106-3.5694-44.589 16.472-60.983 24.908-11.708 0.9335-75.37 26.398-82.962 27.31-13.654 1.6416-25.756 35.604-7.121 42.347 20.684 7.4844 86.782-22.727 86.822-18.852l1.4966 145.88c0.19199 18.713-1.024 45.313 8.1396 54.398-0.56141 9.1484 0.57513 27.508 0.49093 34.686-0.17536 14.949-0.0808 48.457-0.74879 64.387-1.1335 27.033 0.48417 62.026 1.8433 83.402 0.10769 1.6936 0.3986 3.1038 0.84595 4.2778-2.6619 6.0667 0.53375 16.383 3.3977 23.788 3.056 7.9014 6.6337 8.18 15.561 8.0636 16.868-0.21995 15.158-2.6079 18.78-12.485 2.9848-8.1413 5.4152-15.162 4.0111-19.748 0.8256-1.4832 1.3327-3.2486 1.4263-5.3299 0.78061-17.358 3.3407-40.527 5.0653-57.059 0.6746-16.643 2.6818-98.846 13.281-108.66 8.9539-2.6936 33.805-5.6014 39.118-1.4459 17.765 13.893 14.713 23.015 15.983 50.006 1.3384 33.687 5.4536 66.144 8.7958 106.51 0.15268 6.3762 0.70985 11.235 1.6242 14.92-2.1998 4.5225 0.37667 12.008 3.5998 20.799 3.6213 9.8771 1.9121 12.265 18.78 12.485 8.9271 0.11641 12.505-0.16218 15.561-8.0636 2.7375-7.0779 5.778-16.816 3.7166-22.96 1.7373-5.5229 1.9034-15.339 2.5166-32.955 0.79339-22.79 1.1986-16.178 0.68574-42.192-2.5921-32.661-1.9309-66.874-0.56275-85.858 0.95376-13.853 1.0359-24.816 0.37-33.396 7.018-9.5176 6.102-26.601 6.4306-48.106l2.2154-144.98c0.10813-7.0764 70.926 30.733 85.254 18.478 19.089-16.327 2.8378-40.69-7.121-42.347-20.626-3.4308-84.236-32.62-98.109-30.002-11.918-8.781-36.025-22.613-43.657-22.952-0.2145-0.01-0.41624-9e-3 -0.60409 4e-3 -0.11443-0.18174-0.30635-0.27943-0.58653-0.28939z" fill="none" filter="url(#filter60)" stroke="#fff" stroke-linecap="round" stroke-linejoin="round" stroke-width="8.4667"/><g transform="matrix(-.11364 -.99352 -.99352 .11364 768.07 810.82)"><path d="m149.32 397.02c-16.98 3.1922-44.864 5.2515-74.794 7.6361-23.514 2.2209-30.519 3.8554-50.99 6.9217-33.358 4.9967-48.607 12.541-47.527 27.246 1.0811 14.716 20.048 19.023 50.29 16.295 35.508-0.40328 65.008-1.3326 97.441-3.3065 24.381-0.94446 35.119-5.6542 55.917 3.2172 11.866 5.0615 8.5254 36.268 11.959 23.43 5.4785-19.663 114.59-119.7 28.638-92.391-34.617 7.6585-46.464 7.8334-70.934 10.951z" fill="#1f89f5" stroke-linecap="round" stroke-linejoin="round" stroke-width="2"/></g><g transform="matrix(-.11364 -.99352 -.99352 .11364 768.07 810.82)"><path d="m168.8 567.35c-17.262 0.72435-44.891 5.0144-74.587 9.4496-23.408 3.1459-30.601 3.1354-51.236 4.7707-33.625 2.6647-50.184-1.2411-52.452-15.81-2.2698-14.58 15.235-23.058 45.312-27.23 34.682-7.6248 63.63-13.381 95.671-18.781 23.965-4.5852 35.489-2.4218 53.746-15.76 10.417-7.6102 0.11574-37.257 6.3601-25.525 9.7769 17.918 138.66 90.735 48.761 83.538-35.452 0.35593-47.033 2.8606-71.575 5.3491z" fill="#1f89f5" stroke-linecap="round" stroke-linejoin="round" stroke-width="2"/></g><g transform="translate(.44685 40.123)" display="none" fill="#66ecff"><path d="m110.02 269.6c-3.047-7.3511-10.763-28.278-26.613 5.8353-8.3671 29.531-8.7621 58.858 8.0667 104.9-24.746-4.4901-38.508-36.895-45.206-26.249-10.21 16.455 2.6705 83.452 38.96 116.2-25.591 3.1012-40.345-19.375-43.573-7.0203-6.9693 27.157 60.313 100.48 137.28 92.905 8.2244 2.0756 34.495-15.877 42.705-14.374 41.535-6.0045 39.265 0.40194 39.267-41.559-7e-3 -7.3086-0.96311-14.585-2.8443-21.648-5.9742-6.8137-12.863-13.743-20.519-20.639-6.71-23.008-20.091-22.865-34.177-47.219-62.16-33.989-82.833-115.78-93.344-141.14zm148.04 208.99c-258.86-307.28-258.86-307.28 0 0z" opacity=".6"/><path d="m430.95 269.6c3.047-7.3511 10.763-28.278 26.613 5.8353 8.3671 29.531 8.7621 58.858-8.0667 104.9 24.746-4.4901 38.508-36.895 45.206-26.249 10.21 16.455-2.6705 83.452-38.96 116.2 25.591 3.1012 40.345-19.375 43.573-7.0203 6.9693 27.157-60.313 100.48-137.28 92.905-8.2244 2.0756-34.495-15.877-42.705-14.374-41.535-6.0045-39.265 0.40194-39.267-41.559 7e-3 -7.3086 0.96311-14.585 2.8443-21.648 5.9742-6.8137 12.863-13.743 20.519-20.639 6.71-23.008 20.091-22.865 34.177-47.219 62.16-33.989 82.833-115.78 93.344-141.14zm-148.04 208.99c258.86-307.28 258.86-307.28 0 0z" opacity=".6"/></g><g transform="translate(-2.0801 9.9082)" stroke-linecap="round" stroke-linejoin="round"><path d="m273.01 395.75c50.903 0 91.884 24.363 91.884 73.252v126.34c0 48.888-40.98 72.815-91.884 72.815-50.903 0-91.884-23.927-91.884-72.815v-126.34c0-48.888 40.98-73.252 91.884-73.252z" fill="#1f89f5" stroke-width="1.96"/><g stroke-width="2"><path d="m196.97 403.89c-12.177 4.6e-4 -29.916 4.7977-37.874 9.6742-0.0214 5e-3 -0.0427 7e-3 -0.0641 0.0119 0 0-33.674 16.852-52.886 18.774-28.091 3.3268-36.987-4.9656-53.919-10.924-13.757-4.8413-25.07-2.1601-25.07 12.488 0 14.648 12.021 29.091 26.257 32.544 0 0 29.3 11.384 51.713 8.6599 25.286-2.1054 55.31-15.781 55.31-15.781 8.4937-4.2494 12.287-6.2858 18.254-9.7017 5.1887-3.7556 9.0085-5.2168 11.789-5.2052 19.683 3e-5 33.092-3.4971 33.092-16.787 1.6e-4 -13.29 7.1119-21.956-13.333-23.754z" fill="#1f89f5"/><path d="m40.125 418.76c-7.8124 0.2022-13.458 5.2346-13.458 15.305 0 14.648 11.722 29.71 25.958 33.162 0 0 21.579 7.7439 40.757 9.1558 8.0268-5.6905 9.9328-15.888 10.842-20.556 1.4768-7.5869 2.0211-15.252-4.4255-23.034-22.474 1.1742-32.161-6.3464-47.524-11.753-4.2991-1.5129-8.5976-2.3717-12.149-2.2798z" fill="#f7f7f7"/></g><g transform="matrix(-1 0 0 1 544.08 -.00023)" stroke-width="2"><path d="m195.02 403.89c-12.177 4.6e-4 -29.916 4.7977-37.874 9.6742-0.0214 5e-3 -0.0427 7e-3 -0.0641 0.0119 0 0-33.674 16.852-52.886 18.774-28.091 3.3268-36.987-4.9656-53.919-10.924-13.757-4.8413-25.07-2.1601-25.07 12.488 0 14.648 12.021 29.091 26.257 32.544 0 0 29.3 11.384 51.713 8.6599 25.286-2.1054 55.31-15.781 55.31-15.781 8.4937-4.2494 12.287-6.2858 18.254-9.7017 5.1887-3.7556 9.0085-5.2168 11.789-5.2052 19.683 3e-5 33.092-3.4971 33.092-16.787 1.6e-4 -13.29 7.1119-21.956-13.333-23.754z" fill="#1f89f5"/><path d="m38.18 418.76c-7.8124 0.2022-13.458 5.2346-13.458 15.305 0 14.648 11.722 29.71 25.958 33.162 0 0 21.579 7.7439 40.757 9.1558 8.0269-5.6905 9.9328-15.888 10.842-20.556 1.4768-7.5869 2.0211-15.252-4.4255-23.034-22.475 1.1742-32.161-6.3464-47.524-11.753-4.2991-1.5129-8.5976-2.3717-12.149-2.2798z" fill="#f7f7f7"/></g><path d="m273.01 413.05c40.652 0 73.379 21.27 73.379 63.951v110.3c0 42.681-32.727 63.569-73.379 63.569-40.652 0-73.379-20.889-73.379-63.569v-110.3c0-42.681 32.727-63.951 73.379-63.951z" fill="#f7f7f7" stroke-width="1.6366"/><path d="m265.87 358.42c-11.202-0.17923-35.725 37.051-57.582 45.471-26.062 10.04 63.75 15.7 63.75 0 0 15.7 89.812 10.04 63.75 0-29.141-11.226-63.025-73.672-63.75-30.369-0.18114-10.826-2.4348-15.042-6.1686-15.102z" fill="#1f89f5" stroke-width="2.4028"/></g><g><path d="m317.24 872.76c3.6213 9.8771 1.9121 12.265 18.78 12.485 8.9271 0.11641 12.505-0.16229 15.561-8.0637 4.7987-12.407 10.528-32.988-11.924-28.057-32.799-6.5489-28.927 5.8782-22.416 23.635z" fill="#202020"/><path d="m224.34 872.76c-3.6213 9.8771-1.9121 12.265-18.78 12.485-8.9271 0.11641-12.505-0.16229-15.561-8.0637-4.7987-12.407-10.528-32.988 11.924-28.057 32.799-6.5489 28.927 5.8782 22.416 23.635z" fill="#202020"/><path d="m357.94 693.22c-1.3682 18.984-2.0289 53.197 0.56318 85.858 0.51285 26.014 0.10729 19.403-0.6861 42.192-1.2929 37.137-0.59831 39.611-16.829 40.269-16.242 0.65901-28.168 8.9483-28.969-24.494-3.3423-40.369-7.4573-72.826-8.7957-106.51-1.2701-26.991 1.7816-36.113-15.983-50.006-5.3134-4.1555-30.164-1.248-39.118 1.4456-10.599 9.8096-12.606 92.013-13.281 108.66-1.7246 16.531-4.285 39.7-5.0656 57.058-0.46397 10.317-11.091 12.876-20.289 11.749-10.474-1.2833-22.878 3.1264-23.732-10.316-1.3591-21.376-2.9771-56.369-1.8435-83.402 0.66796-15.929 0.57338-49.438 0.74874-64.387 0.10836-9.2378-1.8046-36.993 0.48082-39.804 4.016-4.9395 86.925-10.462 92.764-5.2105 40.486-1.2972 87.588-72.798 80.035 36.904z" fill="#1a1a1a"/><g><path d="m272.26 409.11c58.022-41.124 15.159-10.709 18.02 31.876 2.8702 42.724 23.999 69.385-17.755 68.198-33.276-0.94567-18.655-92.99-33.167-113.18-10.475-14.573 24.518 4.3848 32.902 13.106z" fill="#fff"/><g fill="#f4f4f4"><circle cx="271.85" cy="492.01" r="4.6208" style="paint-order:stroke fill markers"/><circle cx="272.6" cy="467.18" r="4.6208" style="paint-order:stroke fill markers"/><circle cx="272.6" cy="442.35" r="4.6208" style="paint-order:stroke fill markers"/><circle cx="272.6" cy="417.51" r="4.6208" style="paint-order:stroke fill markers"/></g></g><g><path d="m301.15 390.65c2.6751-4.4522 32.216 12.181 45.836 22.216 13.872-2.6186 77.483 26.571 98.109 30.002 9.9588 1.6565 26.21 26.02 7.121 42.347-14.328 12.255-85.146-25.554-85.254-18.478l-2.2152 144.98c-0.49421 32.343 1.827 54.684-24.26 56.329-17.033 1.0742-46.541 3.0818-69.375 3.0818-36.328 0-67.398 10.954-85.905-3.5714-10.284-8.0718-8.9714-35.924-9.1703-55.31l-1.4967-145.88c-0.0398-3.8752-66.138 26.337-86.822 18.852-18.635-6.743-6.5329-40.705 7.121-42.347 7.5919-0.91278 71.254-26.377 82.962-27.311 16.394-8.4352 56.373-28.477 60.983-24.908 20.01 15.491 26.1 98.82 32.154 115.56 9.0404-19.479 19.361-97.503 30.212-115.56z" fill="#202020"/><g fill="#242424"><circle cx="270.8" cy="527.95" r="7.4835" style="paint-order:stroke fill markers"/><circle cx="270.8" cy="568.17" r="7.4835" style="paint-order:stroke fill markers"/><circle cx="270.8" cy="608.4" r="7.4835" style="paint-order:stroke fill markers"/></g></g></g><g transform="translate(-.89764 93.839)"><g transform="matrix(-.76684 0 0 -.76684 810.62 571.35)"><path d="m702.62 464.38c-111.5 0-201.88 30.703-201.88 68.576v4.8641c3e-5 20.636 26.96 39.096 69.422 51.668v151.94a132.46 68.576 0 0 0 132.46 68.576 132.46 68.576 0 0 0 132.46-68.576v-151.94c42.462-12.572 69.422-31.032 69.422-51.668v-4.8641c-5e-5 -37.874-90.386-68.576-201.88-68.576z" fill="none" filter="url(#filter21)" stroke="#fff" stroke-linecap="round" stroke-width="11.041"/><g transform="translate(372.78 317.99)"><g stroke-linecap="round"><rect x="197.38" y="183.96" width="264.92" height="66.895" ry="0" fill="url(#linearGradient20)" stroke-width=".13246"/><path d="m197.38 249.49v173.95a132.46 68.576 0 0 0 132.46 68.576 132.46 68.576 0 0 0 132.46-68.576v-173.95z" fill="url(#linearGradient39)" stroke-width=".23384"/><path d="m197.38 232.64v42.975c3e-5 37.874 59.305 68.576 132.46 68.576 73.156-3e-5 132.46-30.703 132.46-68.576v-42.975a132.46 68.576 0 0 1-132.46 68.576 132.46 68.576 0 0 1-132.46-68.576z" fill="url(#linearGradient48)" stroke-width=".21361"/></g><path d="m329.84 146.4c-111.5 0-201.88 30.703-201.88 68.576v4.8638c5e-5 37.874 90.386 68.576 201.88 68.576 111.5 0 201.88-30.703 201.88-68.576v-4.8638c-5e-5 -37.874-90.386-68.576-201.88-68.576zm0 38.926c59.235 7e-3 108.64 13.679 113.81 31.498-3.2461 18.28-53.19 32.615-113.81 32.666-59.863-0.0553-109.44-14.05-113.66-32.082 4.2174-18.032 53.797-32.027 113.66-32.082z" fill="url(#linearGradient2)"/></g></g><g transform="matrix(1.2476 0 0 1.2476 -116.42 120.73)"><path d="m312.52-13.469a6.9874 16.897 40.552 0 0-13.426 9.0571 6.9874 16.897 40.552 0 0-5.6761 17.381 6.9874 16.897 40.552 0 0 11.833-3.8582 6.9874 16.897 40.552 0 0 0.17769 7.9272 6.9874 16.897 40.552 0 0 16.294-8.2958 6.9874 16.897 40.552 0 0 5.6761-17.381 6.9874 16.897 40.552 0 0-11.807 3.835 6.9874 16.897 40.552 0 0-0.20419-7.904 6.9874 16.897 40.552 0 0-2.8679-0.76128z" display="none" fill="#1f89f5"/><path d="m405.55 91.514c0 57.558-38.095 49.192-95.055 49.192s-95.235 8.3151-95.235-49.242c0-57.558 38.076-91.463 95.037-91.463s95.253 33.956 95.253 91.514z" fill="#1f89f5" stroke-linecap="round" stroke-linejoin="round" stroke-width="1.9396"/><path d="m295.32 16.783c-35.847 5.3821-58.904 30.544-58.904 70.035 0 44.763 29.766 38.296 74.065 38.296 44.299 0 73.926 6.506 73.926-38.257 0-39.404-23.083-64.575-58.826-70.039-6.0684 4.5818-11.197 10.29-15.107 16.812-3.9198-6.5388-9.0655-12.259-15.154-16.846z" fill="#f7f7f7" stroke-linecap="round" stroke-linejoin="round" stroke-width="1.5085"/><g stroke-linecap="round" stroke-linejoin="round" stroke-width="1.603"><path d="m335.4 104.16c0 6.4722-14.422 11.874-24.894 11.874-10.472 0-25.093-5.0189-25.093-11.491 0-3.8397 49.987-4.2792 49.987-0.38309z" fill="#e5a810"/><path d="m335.4 104.16c0 2.7987-49.987 3.5014-49.987 0.38309 0-6.4722 14.621-17.834 25.093-17.834 10.472-1e-6 24.894 10.978 24.894 17.45z" fill="#eeb11a"/></g><g stroke-linecap="round" stroke-linejoin="round"><circle cx="279.42" cy="71.629" r="23.375" fill="#fff" stroke="#737373" stroke-width="2.1207"/><circle cx="285.42" cy="75.752" r="12.798" fill="url(#radialGradient26)" stroke-width="1.603"/><circle transform="scale(-1,1)" cx="-341.4" cy="71.629" r="23.375" fill="#fff" stroke="#737373" stroke-width="2.1207"/><circle cx="335.4" cy="75.752" r="12.798" fill="url(#radialGradient7)" stroke-width="1.603"/></g></g><path d="m426.64 160.79v-1.865c-4e-5 -29.043-69.312-52.587-154.81-52.587-85.5 0-154.81 23.544-154.81 52.587v1.865h58.608c3.2193-13.802 50.215-24.563 96.204-24.602 45.905 0.0424 90.892 10.774 94.127 24.602z" fill="url(#linearGradient45)"/></g></g></svg>
