<?xml version="1.0" encoding="UTF-8"?>
<svg width="128" height="128" version="1.1" viewBox="0 0 541.87 541.87" xml:space="preserve" xmlns="http://www.w3.org/2000/svg" xmlns:xlink="http://www.w3.org/1999/xlink"><defs><linearGradient id="linearGradient33"><stop stop-color="#262626" offset="0"/><stop stop-color="#1a1a1a" offset="1"/></linearGradient><linearGradient id="linearGradient39" x1="146.63" x2="411.55" y1="370.75" y2="370.75" gradientTransform="translate(50.748)" gradientUnits="userSpaceOnUse" spreadMethod="reflect"><stop stop-color="#292929" offset="0"/><stop stop-color="#1f1f1f" offset=".5"/><stop stop-color="#292929" offset="1"/></linearGradient><linearGradient id="linearGradient45" x1="77.205" x2="480.97" y1="217.4" y2="217.4" gradientTransform="translate(50.748)" gradientUnits="userSpaceOnUse"><stop stop-color="#2e2e2e" offset="0"/><stop stop-color="#262626" offset=".5"/><stop stop-color="#2e2e2e" offset="1"/></linearGradient><linearGradient id="linearGradient48" x1="146.63" x2="411.55" y1="288.41" y2="288.41" gradientTransform="translate(50.748)" gradientUnits="userSpaceOnUse"><stop stop-color="#2993ff" offset="0"/><stop stop-color="#1f89f5" offset=".5"/><stop stop-color="#2993ff" offset="1"/></linearGradient><radialGradient id="radialGradient26" cx="281.48" cy="75.151" r="12.798" gradientTransform="translate(-2.1375 -.42034)" gradientUnits="userSpaceOnUse" xlink:href="#linearGradient33"/><filter id="filter21" x="-.058216" y="-.068011" width="1.1164" height="1.136" color-interpolation-filters="sRGB"><feGaussianBlur stdDeviation="7.4938605"/></filter><radialGradient id="radialGradient24" cx="270.93" cy="270.93" r="270.93" gradientUnits="userSpaceOnUse"><stop stop-color="#1f298f" offset="0"/><stop stop-color="#13192c" offset="1"/></radialGradient><radialGradient id="radialGradient7" cx="281.48" cy="75.151" r="12.798" gradientTransform="translate(48.79 -.42034)" gradientUnits="userSpaceOnUse" xlink:href="#linearGradient33"/><linearGradient id="linearGradient20" x1="329.84" x2="329.84" y1="183.96" y2="344.19" gradientUnits="userSpaceOnUse"><stop offset="0"/><stop stop-color="#535353" offset="1"/></linearGradient></defs><g display="none"><rect width="541.87" height="541.87" ry="0" fill="url(#radialGradient24)"/></g><g transform="translate(.44685 -125.71)" fill="#66ecff"><path d="m110.02 269.6c-3.047-7.3511-10.763-28.278-26.613 5.8353-8.3671 29.531-8.7621 58.858 8.0667 104.9-24.746-4.4901-38.508-36.895-45.206-26.249-10.21 16.455 2.6705 83.452 38.96 116.2-25.591 3.1012-40.345-19.375-43.573-7.0203-6.9693 27.157 60.313 100.48 137.28 92.905 8.2244 2.0756 34.495-15.877 42.705-14.374 41.535-6.0045 39.265 0.40194 39.267-41.559-7e-3 -7.3086-0.96311-14.585-2.8443-21.648-5.9742-6.8137-12.863-13.743-20.519-20.639-6.71-23.008-20.091-22.865-34.177-47.219-62.16-33.989-82.833-115.78-93.344-141.14zm148.04 208.99c-258.86-307.28-258.86-307.28 0 0z" opacity=".6"/><path d="m430.95 269.6c3.047-7.3511 10.763-28.278 26.613 5.8353 8.3671 29.531 8.7621 58.858-8.0667 104.9 24.746-4.4901 38.508-36.895 45.206-26.249 10.21 16.455-2.6705 83.452-38.96 116.2 25.591 3.1012 40.345-19.375 43.573-7.0203 6.9693 27.157-60.313 100.48-137.28 92.905-8.2244 2.0756-34.495-15.877-42.705-14.374-41.535-6.0045-39.265 0.40194-39.267-41.559 7e-3 -7.3086 0.96311-14.585 2.8443-21.648 5.9742-6.8137 12.863-13.743 20.519-20.639 6.71-23.008 20.091-22.865 34.177-47.219 62.16-33.989 82.833-115.78 93.344-141.14zm-148.04 208.99c258.86-307.28 258.86-307.28 0 0z" opacity=".6"/></g><g transform="translate(-2.0801 9.9082)" display="none" stroke-linecap="round" stroke-linejoin="round"><path d="m273.01 229.92c50.903 0 91.884 21.08 91.884 63.38v109.31c0 42.3-40.98 63.002-91.884 63.002-50.903 0-91.884-20.702-91.884-63.002v-109.31c0-42.3 40.98-63.38 91.884-63.38z" fill="#1f89f5" stroke-width="1.8232"/><path d="m273.01 244.89c40.652 0 73.379 18.403 73.379 55.332v95.434c0 36.929-32.727 55.002-73.379 55.002-40.652 0-73.379-18.073-73.379-55.002v-95.434c0-36.929 32.727-55.332 73.379-55.332z" fill="#fafafa" stroke-width="1.5223"/><g fill="#1f89f5"><path d="m44.016 258.53c16.931 5.9583 25.827 14.25 53.919 10.924 19.212-1.922 52.885-18.774 52.885-18.774 14.264-3.3341 26.441 11.793 26.441 26.441s-10.386 19.32-25.035 19.32c0 0-30.024 13.676-55.31 15.781-22.413 2.7238-51.713-8.66-51.713-8.66-14.236-3.4523-26.257-17.896-26.257-32.544s11.313-17.329 25.07-12.488z" stroke-width="2"/><path d="m502.01 258.53c-16.931 5.9583-25.827 14.25-53.919 10.924-19.212-1.922-52.885-18.774-52.885-18.774-14.264-3.3341-26.441 11.793-26.441 26.441s10.386 19.32 25.035 19.32c0 0 30.024 13.676 55.31 15.781 22.413 2.7238 51.713-8.66 51.713-8.66 14.236-3.4523 26.257-17.896 26.257-32.544s-11.313-17.329-25.07-12.488z" stroke-width="2"/><path d="m311.68 225.48c0 12.51-19.482 15.514-41.986 15.514-22.504 0-39.509-3.0046-39.509-15.514s18.243-22.651 40.747-22.651 40.747 10.141 40.747 22.651z" stroke-width="2.4028"/></g></g><g transform="matrix(1.2476 0 0 1.2476 -116.35 56.77)"><path d="m312.52-13.469a6.9874 16.897 40.552 0 0-13.426 9.0571 6.9874 16.897 40.552 0 0-5.6761 17.381 6.9874 16.897 40.552 0 0 11.833-3.8582 6.9874 16.897 40.552 0 0 0.17769 7.9272 6.9874 16.897 40.552 0 0 16.294-8.2958 6.9874 16.897 40.552 0 0 5.6761-17.381 6.9874 16.897 40.552 0 0-11.807 3.835 6.9874 16.897 40.552 0 0-0.20419-7.904 6.9874 16.897 40.552 0 0-2.8679-0.76128z" fill="#1f89f5"/><path d="m405.55 91.514c0 57.558-38.095 49.192-95.055 49.192s-95.235 8.3151-95.235-49.242c0-57.558 38.076-91.463 95.037-91.463s95.253 33.956 95.253 91.514z" fill="#1f89f5" stroke-linecap="round" stroke-linejoin="round" stroke-width="1.9396"/><path d="m295.32 16.783c-35.847 5.3821-58.904 30.544-58.904 70.035 0 44.763 29.766 38.296 74.065 38.296 44.299 0 73.926 6.506 73.926-38.257 0-39.404-23.083-64.575-58.826-70.039-6.0684 4.5818-11.197 10.29-15.107 16.812-3.9198-6.5388-9.0655-12.259-15.154-16.846z" fill="#f7f7f7" stroke-linecap="round" stroke-linejoin="round" stroke-width="1.5085"/><g stroke-linecap="round" stroke-linejoin="round" stroke-width="1.603"><path d="m335.4 104.16c0 6.4722-14.422 11.874-24.894 11.874-10.472 0-25.093-5.0189-25.093-11.491 0-3.8397 49.987-4.2792 49.987-0.38309z" fill="#e5a810"/><path d="m335.4 104.16c0 2.7987-49.987 3.5014-49.987 0.38309 0-6.4722 14.621-17.834 25.093-17.834 10.472-1e-6 24.894 10.978 24.894 17.45z" fill="#eeb11a"/></g><g stroke-linecap="round" stroke-linejoin="round"><circle cx="279.42" cy="71.629" r="23.375" fill="#fff" stroke="#737373" stroke-width="2.1207"/><circle cx="284.94" cy="79.375" r="12.798" fill="url(#radialGradient26)" stroke-width="1.603"/><circle transform="scale(-1,1)" cx="-341.4" cy="71.629" r="23.375" fill="#fff" stroke="#737373" stroke-width="2.1207"/><circle cx="335.87" cy="79.375" r="12.798" fill="url(#radialGradient7)" stroke-width="1.603"/></g></g><g transform="matrix(.76684 0 0 .76684 18.001 124.63)"><path d="m329.84 146.4c-111.5 0-201.88 30.703-201.88 68.576v4.8641c3e-5 20.636 26.96 39.096 69.422 51.668v151.94a132.46 68.576 0 0 0 132.46 68.576 132.46 68.576 0 0 0 132.46-68.576v-151.94c42.462-12.572 69.422-31.032 69.422-51.668v-4.8641c-5e-5 -37.874-90.386-68.576-201.88-68.576z" fill="none" filter="url(#filter21)" stroke="#fff" stroke-linecap="round" stroke-width="11.041"/><g><g stroke-linecap="round"><rect x="197.38" y="183.96" width="264.92" height="66.895" ry="0" fill="url(#linearGradient20)" stroke-width=".13246"/><path d="m197.38 249.49v173.95a132.46 68.576 0 0 0 132.46 68.576 132.46 68.576 0 0 0 132.46-68.576v-173.95z" fill="url(#linearGradient39)" stroke-width=".23384"/><path d="m197.38 232.64v42.975c3e-5 37.874 59.305 68.576 132.46 68.576 73.156-3e-5 132.46-30.703 132.46-68.576v-42.975a132.46 68.576 0 0 1-132.46 68.576 132.46 68.576 0 0 1-132.46-68.576z" fill="url(#linearGradient48)" stroke-width=".21361"/></g><path d="m329.84 146.4c-111.5 0-201.88 30.703-201.88 68.576v4.8638c5e-5 37.874 90.386 68.576 201.88 68.576 111.5 0 201.88-30.703 201.88-68.576v-4.8638c-5e-5 -37.874-90.386-68.576-201.88-68.576zm0 38.926c59.235 7e-3 108.64 13.679 113.81 31.498-3.2461 18.28-53.19 32.615-113.81 32.666-59.863-0.0553-109.44-14.05-113.66-32.082 4.2174-18.032 53.797-32.027 113.66-32.082z" fill="url(#linearGradient45)"/></g></g></svg>
