<?xml version="1.0" encoding="UTF-8"?>
<svg width="128" height="128" version="1.1" viewBox="0 0 541.87 541.87" xml:space="preserve" xmlns="http://www.w3.org/2000/svg"><g transform="translate(.44685 -2.3398)" fill="#66ecff"><path d="m81.305 73.423c-3.5923-8.6668-12.689-33.339-31.377 6.8797-9.8646 34.817-10.33 69.392 9.5105 123.67-29.175-5.2938-45.4-43.498-53.297-30.947-12.038 19.4 3.1485 98.389 45.934 137-30.172 3.6562-47.566-22.843-51.372-8.2768-8.2167 32.017 71.107 118.47 161.85 109.53 9.6964 2.447 40.669-18.719 50.349-16.947 48.969-7.0792 46.293 0.47388 46.296-48.998-8e-3 -8.6167-1.1355-17.196-3.3533-25.522-7.0435-8.0332-15.166-16.203-24.191-24.332-7.911-27.126-23.686-26.958-40.294-55.671-73.286-40.073-97.658-136.5-110.05-166.4zm174.54 246.4c-305.19-362.27-305.19-362.27 0 0z" opacity=".6"/><path d="m459.67 73.423c3.5923-8.6668 12.689-33.339 31.377 6.8797 9.8646 34.817 10.33 69.392-9.5105 123.67 29.175-5.2938 45.4-43.498 53.297-30.947 12.038 19.4-3.1484 98.389-45.934 137 30.172 3.6562 47.566-22.843 51.372-8.2768 8.2167 32.017-71.107 118.47-161.85 109.53-9.6964 2.447-40.669-18.719-50.349-16.947-48.969-7.0792-46.293 0.47388-46.296-48.998 8e-3 -8.6167 1.1355-17.196 3.3533-25.522 7.0435-8.0332 15.166-16.203 24.191-24.332 7.911-27.126 23.686-26.958 40.294-55.671 73.286-40.073 97.658-136.5 110.05-166.4zm-174.54 246.4c305.19-362.27 305.19-362.27 0 0z" opacity=".6"/></g><g transform="matrix(1.2655 0 0 1 259.28 654.28)" fill="#1f89f5" stroke-linecap="round" stroke-linejoin="round"><rect x="-107.09" y="-608.5" width="232.59" height="450.31" rx="0" ry="12.956" fill="#1f1f1f" stroke-width=".82539"/><g stroke-width=".73372"><path d="m-91.465-209.17v18.25c0 7.1775 5.7781 12.956 12.956 12.956h175.43c7.1775 0 12.956-5.7783 12.956-12.956v-18.25z" fill="#fff"/><path d="m-52.436-588.73v359.78h162.31v-346.83c0-7.1775-5.7781-12.956-12.956-12.956z" fill="#1f89f5"/><path d="m-79.763-588.73c-6.4826 0-11.701 5.2187-11.701 11.701v348.08h23.403v-359.78z" fill="#777"/></g><g transform="matrix(1.179 0 0 1.179 -1.6478 68.612)" fill="#11477f" stroke-width=".62234"><rect x="-25.698" y="-506.37" width="81.484" height="11.855" ry="5.0298"/><rect x="-25.698" y="-481.78" width="91.382" height="11.855" ry="5.3081"/><rect x="-25.698" y="-457.2" width="102.91" height="11.855" ry="5.3081"/></g></g></svg>
